# xmcd CD database file
#
# Track frame offsets:
#	182
#	11190
#	33777
#	47342
#	53970
#	59585
#	67987
#	84930
#	92442
#	101352
#	110665
#	127307
#	136665
#	144155
#	156785
#	173117
#	191115
#	199610
#	206880
#	217162
#	232165
#	252212
#	257195
#	262502
#	275427
#	283760
#	301192
#
# Disc length: 4328 seconds
#
# Revision: 0
# Processed by: cddbd v1.5.2PL0 Copyright (c) Steve Scherf et al.
# Submitted via: CDex 1.70beta2
#
DISCID=8610e61b
DTITLE=Eric Gemsa - Les incontournables du Piano
DYEAR=1993
DGENRE=Jazz
TTITLE0=Lettre à Elyse
TTITLE1=Sonate au Clair de Lune
TTITLE2=Marche Turque
TTITLE3=Tristesse
TTITLE4=La Truite
TTITLE5=Valse OP. 64 n°1
TTITLE6=4eme Gnossienne
TTITLE7=Rêve d'Amour
TTITLE8=Le Coucou
TTITLE9=Menuet Célèbre
TTITLE10=Sicilienne
TTITLE11=Marche Nuptiale
TTITLE12=Prélude n°1
TTITLE13=Largo
TTITLE14=Jésus que ma joie demeure
TTITLE15=Sarabande
TTITLE16=Plaisir d'Amour
TTITLE17=Le Tambourin
TTITLE18=Sonat en Ut
TTITLE19=Valse op. 69 n°1
TTITLE20=Clair de Lune
TTITLE21=Menuet célèbre
TTITLE22=Menuet
TTITLE23=Ab ! Vous Dirai-je Maman
TTITLE24=4eme Prélude
TTITLE25=1ere Gymnopédie
TTITLE26=Sur un marché Persan
EXTD=YEAR: 1993
EXTT0=
EXTT1=
EXTT2=
EXTT3=
EXTT4=
EXTT5=
EXTT6=
EXTT7=
EXTT8=
EXTT9=
EXTT10=
EXTT11=
EXTT12=
EXTT13=
EXTT14=
EXTT15=
EXTT16=
EXTT17=
EXTT18=
EXTT19=
EXTT20=
EXTT21=
EXTT22=
EXTT23=
EXTT24=
EXTT25=
EXTT26=
PLAYORDER=
